<svg xmlns="http://www.w3.org/2000/svg" viewBox="0 0 512 512">
  <path fill="#FFCD56" d="M437.63 171.368c-6.71 0-12.15 5.44-12.15 12.15v24.3c0 32.63-26.57 59.2-59.2 59.2H72.82c-32.63 0-59.2-26.57-59.2-59.2v-24.3c0-6.71-5.44-12.15-12.15-12.15C5.44 171.368 0 176.808 0 183.518v24.3c0 46.02 37.4 83.42 83.42 83.42h293.46c46.02 0 83.42-37.4 83.42-83.42v-24.3c0-6.71-5.44-12.15-12.15-12.15zM142.44 238.838c-19.61 0-35.55-15.94-35.55-35.55v-82.25c0-4.2 3.4-7.6 7.6-7.6h56.4c4.2 0 7.6 3.4 7.6 7.6v82.25c0 19.61-15.94 35.55-35.55 35.55zm201.12 0c-19.61 0-35.55-15.94-35.55-35.55v-82.25c0-4.2 3.4-7.6 7.6-7.6h56.4c4.2 0 7.6 3.4 7.6 7.6v82.25c0 19.61-15.94 35.55-35.55 35.55z"/>
  <path fill="#F9EBB2" d="M90.46 106.018c4.2 0 7.6 3.4 7.6 7.6v82.25c0 19.61-15.94 35.55-35.55 35.55-19.61 0-35.55-15.94-35.55-35.55v-82.25c0-4.2 3.4-7.6 7.6-7.6h60.35zM320.88 106.018c4.2 0 7.6 3.4 7.6 7.6v82.25c0 19.61-15.94 35.55-35.55 35.55-19.61 0-35.55-15.94-35.55-35.55v-82.25c0-4.2 3.4-7.6 7.6-7.6h60.35z"/>
  <path fill="#FFA07A" d="M256 10.668c-19.61 0-35.55 15.94-35.55 35.55v82.25c0 19.61 15.94 35.55 35.55 35.55s35.55-15.94 35.55-35.55v-82.25c0-19.61-15.94-35.55-35.55-35.55z"/>
  <path fill="#FFD700" d="M256 153.168c-24.6 0-47.66-10.52-64.04-28.78-16.39-18.26-24.46-42.06-22.16-65.48 2.14-27.13 15.49-52.29 36.46-71.1 17.3-15.86 39.07-24.51 61.74-24.51 22.67 0 44.45 8.65 61.75 24.51 20.98 18.81 34.33 43.97 36.47 71.1 2.3 23.42-5.78 47.22-22.16 65.48-16.38 18.27-39.39 28.78-63.99 28.78z"/>
</svg>
